<svg width="100%" height="100%" viewBox="0 0 340 200" fill="none" xmlns="http://www.w3.org/2000/svg">
<g clip-path="url(#clip0)">
<path fill-rule="evenodd" clip-rule="evenodd" d="M167.466 179.544C215.271 179.544 254.025 140.789 254.025 92.9839C254.025 45.1784 215.271 6.42432 167.466 6.42432C119.66 6.42432 80.9062 45.1784 80.9062 92.9839C80.9062 140.789 119.66 179.544 167.466 179.544ZM191.132 109.381C196.871 103.642 200.095 95.8592 200.095 87.7435H184.795L205.195 67.3434L225.595 87.7435H210.295C210.295 98.5644 205.996 108.942 198.345 116.594C190.693 124.245 180.315 128.544 169.495 128.544C161.488 128.544 154.041 126.198 147.768 122.22L155.214 114.774C159.448 117.069 164.395 118.344 169.495 118.344C177.61 118.344 185.394 115.12 191.132 109.381ZM113.394 87.7435L128.694 87.7435C128.694 76.9226 132.993 66.5449 140.644 58.8934C148.296 51.2419 158.674 46.9433 169.495 46.9433C177.502 46.9433 184.948 49.2893 191.221 53.2673L183.775 60.7134C179.542 58.4184 174.595 57.1434 169.495 57.1434C161.379 57.1434 153.596 60.3673 147.857 66.1059C142.118 71.8446 138.894 79.6279 138.894 87.7435H154.194L133.794 108.144L113.394 87.7435Z" fill="white"/>
<path d="M126.384 161.116H104.913C99.5908 161.116 95.2764 156.801 95.2764 151.479V71.5131" stroke="#DCE9F1" stroke-width="4" stroke-linecap="round" stroke-linejoin="round"/>
<circle cx="126.384" cy="161.116" r="4.3956" fill="white" stroke="#009FE3" stroke-width="2.02874"/>
<circle cx="95.2762" cy="71.5131" r="4.3956" fill="white" stroke="#009FE3" stroke-width="2.02874"/>
<path d="M208.886 161.116H230.357C235.679 161.116 239.993 156.801 239.993 151.479V71.5131" stroke="#DCE9F1" stroke-width="4" stroke-linecap="round" stroke-linejoin="round"/>
<circle r="4.3956" transform="matrix(-1 0 0 1 208.886 161.116)" fill="white" stroke="#009FE3" stroke-width="2.02874"/>
<circle r="4.3956" transform="matrix(-1 0 0 1 239.993 71.5131)" fill="white" stroke="#009FE3" stroke-width="2.02874"/>
<path d="M122.82 61.7979H67.9017C65.7476 61.7979 64 60.0504 64 57.8962V45.1528C64 42.9987 65.7476 41.2511 67.9017 41.2511H122.819C124.974 41.2511 126.721 42.9987 126.721 45.1528V57.8951C126.722 60.0504 124.974 61.7979 122.82 61.7979Z" fill="#DCE9F1"/>
<path d="M74.2732 55.3094C76.3636 55.3094 78.0582 53.6148 78.0582 51.5244C78.0582 49.4341 76.3636 47.7395 74.2732 47.7395C72.1829 47.7395 70.4883 49.4341 70.4883 51.5244C70.4883 53.6148 72.1829 55.3094 74.2732 55.3094Z" fill="#009FE3"/>
<path d="M116.99 50.9837C117.587 50.9837 118.071 50.4996 118.071 49.9023C118.071 49.3051 117.587 48.8209 116.99 48.8209C116.392 48.8209 115.908 49.3051 115.908 49.9023C115.908 50.4996 116.392 50.9837 116.99 50.9837Z" fill="#009FE3"/>
<path d="M112.663 50.9837C113.261 50.9837 113.745 50.4996 113.745 49.9023C113.745 49.3051 113.261 48.8209 112.663 48.8209C112.066 48.8209 111.582 49.3051 111.582 49.9023C111.582 50.4996 112.066 50.9837 112.663 50.9837Z" fill="#009FE3"/>
<path d="M119.152 54.228C119.749 54.228 120.233 53.7438 120.233 53.1466C120.233 52.5494 119.749 52.0652 119.152 52.0652C118.554 52.0652 118.07 52.5494 118.07 53.1466C118.07 53.7438 118.554 54.228 119.152 54.228Z" fill="#009FE3"/>
<path d="M114.827 54.228C115.424 54.228 115.908 53.7438 115.908 53.1466C115.908 52.5494 115.424 52.0652 114.827 52.0652C114.229 52.0652 113.745 52.5494 113.745 53.1466C113.745 53.7438 114.229 54.228 114.827 54.228Z" fill="#009FE3"/>
<path d="M108.338 50.9837C108.935 50.9837 109.42 50.4996 109.42 49.9023C109.42 49.3051 108.935 48.8209 108.338 48.8209C107.741 48.8209 107.257 49.3051 107.257 49.9023C107.257 50.4996 107.741 50.9837 108.338 50.9837Z" fill="#009FE3"/>
<path d="M110.5 54.228C111.098 54.228 111.582 53.7438 111.582 53.1466C111.582 52.5494 111.098 52.0652 110.5 52.0652C109.903 52.0652 109.419 52.5494 109.419 53.1466C109.419 53.7438 109.903 54.228 110.5 54.228Z" fill="#009FE3"/>
<path d="M104.012 50.9837C104.609 50.9837 105.093 50.4996 105.093 49.9023C105.093 49.3051 104.609 48.8209 104.012 48.8209C103.415 48.8209 102.931 49.3051 102.931 49.9023C102.931 50.4996 103.415 50.9837 104.012 50.9837Z" fill="#009FE3"/>
<path d="M106.175 54.228C106.772 54.228 107.257 53.7438 107.257 53.1466C107.257 52.5494 106.772 52.0652 106.175 52.0652C105.578 52.0652 105.094 52.5494 105.094 53.1466C105.094 53.7438 105.578 54.228 106.175 54.228Z" fill="#009FE3"/>
<path d="M99.6869 50.9837C100.284 50.9837 100.768 50.4996 100.768 49.9023C100.768 49.3051 100.284 48.8209 99.6869 48.8209C99.0896 48.8209 98.6055 49.3051 98.6055 49.9023C98.6055 50.4996 99.0896 50.9837 99.6869 50.9837Z" fill="#009FE3"/>
<path d="M101.849 54.228C102.446 54.228 102.93 53.7438 102.93 53.1466C102.93 52.5494 102.446 52.0652 101.849 52.0652C101.252 52.0652 100.768 52.5494 100.768 53.1466C100.768 53.7438 101.252 54.228 101.849 54.228Z" fill="#009FE3"/>
<path d="M122.82 41.1723H67.9017C65.7476 41.1723 64 39.4248 64 37.2706V24.5272C64 22.3731 65.7476 20.6255 67.9017 20.6255H122.819C124.974 20.6255 126.721 22.3731 126.721 24.5272V37.2695C126.722 39.4248 124.974 41.1723 122.82 41.1723Z" fill="#BFE7F8"/>
<path d="M74.2732 34.6839C76.3636 34.6839 78.0582 32.9893 78.0582 30.899C78.0582 28.8086 76.3636 27.114 74.2732 27.114C72.1829 27.114 70.4883 28.8086 70.4883 30.899C70.4883 32.9893 72.1829 34.6839 74.2732 34.6839Z" fill="#009FE3"/>
<path d="M116.99 30.3583C117.587 30.3583 118.071 29.8741 118.071 29.2768C118.071 28.6796 117.587 28.1954 116.99 28.1954C116.392 28.1954 115.908 28.6796 115.908 29.2768C115.908 29.8741 116.392 30.3583 116.99 30.3583Z" fill="#009FE3"/>
<path d="M112.663 30.3583C113.261 30.3583 113.745 29.8741 113.745 29.2768C113.745 28.6796 113.261 28.1954 112.663 28.1954C112.066 28.1954 111.582 28.6796 111.582 29.2768C111.582 29.8741 112.066 30.3583 112.663 30.3583Z" fill="#009FE3"/>
<path d="M119.152 33.6025C119.749 33.6025 120.233 33.1184 120.233 32.5211C120.233 31.9239 119.749 31.4397 119.152 31.4397C118.554 31.4397 118.07 31.9239 118.07 32.5211C118.07 33.1184 118.554 33.6025 119.152 33.6025Z" fill="#009FE3"/>
<path d="M114.827 33.6025C115.424 33.6025 115.908 33.1184 115.908 32.5211C115.908 31.9239 115.424 31.4397 114.827 31.4397C114.229 31.4397 113.745 31.9239 113.745 32.5211C113.745 33.1184 114.229 33.6025 114.827 33.6025Z" fill="#009FE3"/>
<path d="M108.338 30.3583C108.935 30.3583 109.42 29.8741 109.42 29.2768C109.42 28.6796 108.935 28.1954 108.338 28.1954C107.741 28.1954 107.257 28.6796 107.257 29.2768C107.257 29.8741 107.741 30.3583 108.338 30.3583Z" fill="#009FE3"/>
<path d="M110.5 33.6025C111.098 33.6025 111.582 33.1184 111.582 32.5211C111.582 31.9239 111.098 31.4397 110.5 31.4397C109.903 31.4397 109.419 31.9239 109.419 32.5211C109.419 33.1184 109.903 33.6025 110.5 33.6025Z" fill="#009FE3"/>
<path d="M104.012 30.3583C104.609 30.3583 105.093 29.8741 105.093 29.2768C105.093 28.6796 104.609 28.1954 104.012 28.1954C103.415 28.1954 102.931 28.6796 102.931 29.2768C102.931 29.8741 103.415 30.3583 104.012 30.3583Z" fill="#009FE3"/>
<path d="M106.175 33.6025C106.772 33.6025 107.257 33.1184 107.257 32.5211C107.257 31.9239 106.772 31.4397 106.175 31.4397C105.578 31.4397 105.094 31.9239 105.094 32.5211C105.094 33.1184 105.578 33.6025 106.175 33.6025Z" fill="#009FE3"/>
<path d="M99.6869 30.3583C100.284 30.3583 100.768 29.8741 100.768 29.2768C100.768 28.6796 100.284 28.1954 99.6869 28.1954C99.0896 28.1954 98.6055 28.6796 98.6055 29.2768C98.6055 29.8741 99.0896 30.3583 99.6869 30.3583Z" fill="#009FE3"/>
<path d="M101.849 33.6025C102.446 33.6025 102.93 33.1184 102.93 32.5211C102.93 31.9239 102.446 31.4397 101.849 31.4397C101.252 31.4397 100.768 31.9239 100.768 32.5211C100.768 33.1184 101.252 33.6025 101.849 33.6025Z" fill="#009FE3"/>
<path d="M122.82 20.5468H67.9017C65.7476 20.5468 64 18.7993 64 16.6451V3.90174C64 1.74756 65.7476 0 67.9017 0H122.819C124.974 0 126.721 1.74756 126.721 3.90174V16.644C126.722 18.7993 124.974 20.5468 122.82 20.5468Z" fill="#DCE9F1"/>
<path d="M74.2732 14.0584C76.3636 14.0584 78.0582 12.3638 78.0582 10.2735C78.0582 8.1831 76.3636 6.48853 74.2732 6.48853C72.1829 6.48853 70.4883 8.1831 70.4883 10.2735C70.4883 12.3638 72.1829 14.0584 74.2732 14.0584Z" fill="#009FE3"/>
<path d="M116.99 9.73277C117.587 9.73277 118.071 9.24861 118.071 8.65136C118.071 8.05411 117.587 7.56995 116.99 7.56995C116.392 7.56995 115.908 8.05411 115.908 8.65136C115.908 9.24861 116.392 9.73277 116.99 9.73277Z" fill="#009FE3"/>
<path d="M112.663 9.73277C113.261 9.73277 113.745 9.24861 113.745 8.65136C113.745 8.05411 113.261 7.56995 112.663 7.56995C112.066 7.56995 111.582 8.05411 111.582 8.65136C111.582 9.24861 112.066 9.73277 112.663 9.73277Z" fill="#009FE3"/>
<path d="M119.152 12.9769C119.749 12.9769 120.233 12.4927 120.233 11.8955C120.233 11.2983 119.749 10.8141 119.152 10.8141C118.554 10.8141 118.07 11.2983 118.07 11.8955C118.07 12.4927 118.554 12.9769 119.152 12.9769Z" fill="#009FE3"/>
<path d="M114.827 12.9769C115.424 12.9769 115.908 12.4927 115.908 11.8955C115.908 11.2983 115.424 10.8141 114.827 10.8141C114.229 10.8141 113.745 11.2983 113.745 11.8955C113.745 12.4927 114.229 12.9769 114.827 12.9769Z" fill="#009FE3"/>
<path d="M108.338 9.73277C108.935 9.73277 109.42 9.24861 109.42 8.65136C109.42 8.05411 108.935 7.56995 108.338 7.56995C107.741 7.56995 107.257 8.05411 107.257 8.65136C107.257 9.24861 107.741 9.73277 108.338 9.73277Z" fill="#009FE3"/>
<path d="M110.5 12.9769C111.098 12.9769 111.582 12.4927 111.582 11.8955C111.582 11.2983 111.098 10.8141 110.5 10.8141C109.903 10.8141 109.419 11.2983 109.419 11.8955C109.419 12.4927 109.903 12.9769 110.5 12.9769Z" fill="#009FE3"/>
<path d="M104.012 9.73277C104.609 9.73277 105.093 9.24861 105.093 8.65136C105.093 8.05411 104.609 7.56995 104.012 7.56995C103.415 7.56995 102.931 8.05411 102.931 8.65136C102.931 9.24861 103.415 9.73277 104.012 9.73277Z" fill="#009FE3"/>
<path d="M106.175 12.9769C106.772 12.9769 107.257 12.4927 107.257 11.8955C107.257 11.2983 106.772 10.8141 106.175 10.8141C105.578 10.8141 105.094 11.2983 105.094 11.8955C105.094 12.4927 105.578 12.9769 106.175 12.9769Z" fill="#009FE3"/>
<path d="M99.6869 9.73277C100.284 9.73277 100.768 9.24861 100.768 8.65136C100.768 8.05411 100.284 7.56995 99.6869 7.56995C99.0896 7.56995 98.6055 8.05411 98.6055 8.65136C98.6055 9.24861 99.0896 9.73277 99.6869 9.73277Z" fill="#009FE3"/>
<path d="M101.849 12.9769C102.446 12.9769 102.93 12.4927 102.93 11.8955C102.93 11.2983 102.446 10.8141 101.849 10.8141C101.252 10.8141 100.768 11.2983 100.768 11.8955C100.768 12.4927 101.252 12.9769 101.849 12.9769Z" fill="#009FE3"/>
<g clip-path="url(#clip1)">
<rect x="143.121" y="122.232" width="54.0997" height="72.6965" fill="#80CFF1"/>
<rect x="138.049" y="127.303" width="54.0997" height="72.6965" fill="#BFE7F8"/>
<rect x="147.686" y="135.926" width="29.7549" height="2.70499" rx="0.507185" fill="#009FE3"/>
<rect x="147.686" y="139.983" width="23.6686" height="2.02874" rx="0.507185" fill="white"/>
<rect x="172.707" y="139.983" width="11.1581" height="2.02874" rx="0.507185" fill="white"/>
<rect x="147.686" y="143.364" width="10.989" height="2.02874" rx="0.507185" fill="white"/>
<rect x="160.027" y="143.364" width="23.8377" height="2.02874" rx="0.507185" fill="white"/>
<rect x="147.686" y="146.746" width="16.568" height="2.02874" rx="0.507185" fill="white"/>
<rect x="147.686" y="159.425" width="2.02874" height="2.02874" rx="1.01437" fill="#009FE3"/>
<rect x="150.729" y="159.425" width="13.0178" height="2.02874" rx="0.507185" fill="white"/>
<rect x="165.099" y="159.425" width="5.91716" height="2.02874" rx="0.507185" fill="white"/>
<rect x="147.686" y="164.159" width="2.02874" height="2.02874" rx="1.01437" fill="#009FE3"/>
<rect x="157.66" y="164.159" width="15.5537" height="2.02874" rx="0.507185" fill="white"/>
<rect x="150.729" y="164.159" width="5.91716" height="2.02874" rx="0.507185" fill="white"/>
<rect x="147.686" y="168.893" width="2.02874" height="2.02874" rx="1.01437" fill="#009FE3"/>
<rect x="150.729" y="168.893" width="19.273" height="2.02874" rx="0.507185" fill="white"/>
<rect x="147.686" y="173.626" width="2.02874" height="2.02874" rx="1.01437" fill="#009FE3"/>
<rect x="150.729" y="173.626" width="13.0178" height="2.02874" rx="0.507185" fill="white"/>
<rect x="165.099" y="173.626" width="12.3415" height="2.02874" rx="0.507185" fill="white"/>
<rect x="165.606" y="146.746" width="9.63652" height="2.02874" rx="0.507185" fill="white"/>
<rect x="176.595" y="146.746" width="7.26965" height="2.02874" rx="0.507185" fill="white"/>
</g>
<circle cx="248.278" cy="29.5858" r="17.5824" fill="#BFE7F8"/>
<circle cx="228.244" cy="30.8538" r="11.7498" fill="#BFE7F8"/>
<rect x="204.828" y="29.5858" width="70.3297" height="32.2908" rx="16.1454" fill="#BFE7F8"/>
</g>
<defs>
<clipPath id="clip0">
<rect width="211.158" height="200" fill="white" transform="translate(64)"/>
</clipPath>
<clipPath id="clip1">
<rect width="77.2612" height="77.7684" fill="white" transform="translate(127.736 122.232)"/>
</clipPath>
</defs>
</svg>
