<svg xmlns="http://www.w3.org/2000/svg" viewBox="0 0 559.36 55.36"><defs><style>.cls-1{fill:#e5231d;}.cls-2{fill:#fff;}</style></defs><title>SMS_smartive</title><g id="Ebene_2" data-name="Ebene 2"><g id="Ebene_1-2" data-name="Ebene 1"><path class="cls-1" d="M122.43,44.64h-.33c-3.49,0-7.65-2-9.35-5.44a2.43,2.43,0,0,1-.27-1,2.07,2.07,0,0,1,2.12-2,2.17,2.17,0,0,1,1.86.92c1.37,1.8,3.72,3.44,5.74,3.43h.27c3.33,0,5.24-1.87,5.23-3.67.09-7.27-14.19-1.77-14.22-12.14,0-5.24,5.49-7,8.93-7h.22A11.68,11.68,0,0,1,129.79,20a1.91,1.91,0,0,1,.77,1.58,2,2,0,0,1-2,2,2.69,2.69,0,0,1-1.21-.33,9.18,9.18,0,0,0-4.8-1.46h-.22c-3.06,0-4.69,1.38-4.74,3-.1,6,14.19,1.11,14.22,12v.21C131.87,41.94,127,44.63,122.43,44.64Z"/><path class="cls-1" d="M168.27,20.17,161.88,43a2.09,2.09,0,0,1-2,1.53h-.44A2.38,2.38,0,0,1,157.35,43c-1.32-4.7-4.85-17.79-5.18-18.61-.27.87-3.73,14-5,18.63a2.21,2.21,0,0,1-2,1.59h-.49a2.09,2.09,0,0,1-2-1.52l-6.44-22.81a2.11,2.11,0,0,1-.11-.6,2,2,0,0,1,2.12-2,2,2,0,0,1,2,1.52l4.74,16.58,4.87-16.66a2.14,2.14,0,0,1,2.34-1.48h.06c1.64,0,2.13.65,2.35,1.47l5,16.69,4.71-16.66a1.94,1.94,0,0,1,1.9-1.54,2,2,0,0,1,2.14,2A2.43,2.43,0,0,1,168.27,20.17Z"/><path class="cls-1" d="M176.44,11.47a2,2,0,0,1-2.08-2.07V8.2a2.08,2.08,0,1,1,4.15,0v1.2A2,2,0,0,1,176.44,11.47Zm.09,33a2,2,0,0,1-2.08-2.07l-.06-22.82a2.08,2.08,0,0,1,4.15,0l.06,22.82A2,2,0,0,1,176.53,44.5Z"/><path class="cls-1" d="M194.65,44.45h-.33c-3.49,0-7.64-2.05-9.34-5.43a2.38,2.38,0,0,1-.28-1,2.07,2.07,0,0,1,2.12-2,2.12,2.12,0,0,1,1.86.92c1.37,1.8,3.72,3.43,5.74,3.42h.28c3.33,0,5.23-1.87,5.23-3.67.09-7.26-14.2-1.76-14.23-12.14,0-5.24,5.5-7,8.94-7h.22A11.67,11.67,0,0,1,202,19.81a1.93,1.93,0,0,1,.77,1.58,2,2,0,0,1-2,2,2.63,2.63,0,0,1-1.2-.32,9.13,9.13,0,0,0-4.81-1.46h-.22c-3.05,0-4.69,1.37-4.74,3-.09,5.95,14.2,1.11,14.23,12v.22C204.09,41.76,199.24,44.44,194.65,44.45Z"/><path class="cls-1" d="M219.16,44.39h-.33c-3.49,0-7.64-2-9.35-5.43a2.51,2.51,0,0,1-.27-1,2.08,2.08,0,0,1,2.12-2,2.15,2.15,0,0,1,1.86.93c1.37,1.8,3.72,3.43,5.74,3.42h.28c3.33,0,5.23-1.87,5.23-3.67.09-7.26-14.2-1.77-14.23-12.14,0-5.24,5.5-7,8.94-7h.22a11.67,11.67,0,0,1,7.15,2.33,1.91,1.91,0,0,1,.77,1.58,2,2,0,0,1-2,2,2.66,2.66,0,0,1-1.2-.33,9.31,9.31,0,0,0-4.81-1.46h-.22c-3,0-4.69,1.38-4.74,3-.09,6,14.2,1.11,14.23,12v.22C228.6,41.69,223.75,44.38,219.16,44.39Z"/><path class="cls-1" d="M279.31,44.24a2,2,0,0,1-2.08-2.07l0-16.16c0-3-1.87-4.59-4.66-4.58H272a4.62,4.62,0,0,0-4.68,4.71l0,15.94a2.08,2.08,0,1,1-4.15,0l0-16a4.59,4.59,0,0,0-4.71-4.68H258a4.42,4.42,0,0,0-4.68,4.22l0,16.54a2.07,2.07,0,1,1-4.14,0l-.06-22.82a2,2,0,0,1,2.12-2.08,2,2,0,0,1,2,1.63A6.82,6.82,0,0,1,258,17.32h.49a8.86,8.86,0,0,1,6.78,3.09A8.87,8.87,0,0,1,272,17.28h.49c4.65,0,8.8,2.71,8.82,8.72l0,16.16A2,2,0,0,1,279.31,44.24Z"/><path class="cls-1" d="M306.48,44.17a.84.84,0,0,1-.38-.06A5.08,5.08,0,0,1,302.38,42a9,9,0,0,1-5.89,2.2H296c-4.43,0-8.8-2.76-8.81-7.84,0-.21,0-.43,0-.65.36-8.63,12.49-7.13,13.79-9a1.72,1.72,0,0,0,.17-.93c0-3.22-2-4.42-4.44-4.41h-.38a4.59,4.59,0,0,0-4.42,2.74,2.06,2.06,0,0,1-1.85,1.1A2,2,0,0,1,288,23.3a2.08,2.08,0,0,1,.22-1,8.45,8.45,0,0,1,8.12-5.1h.38a8.38,8.38,0,0,1,8.59,8.39l0,12.66a1.61,1.61,0,0,0,1.42,1.8,2,2,0,0,1,1.75,2A2,2,0,0,1,306.48,44.17Zm-5.33-13.09c-4,1.1-9.66.9-9.82,4.72v.43c0,2.35,1.87,3.82,4.65,3.81h.5a4.67,4.67,0,0,0,4.68-4.65Z"/><path class="cls-1" d="M329.09,44.11a1.92,1.92,0,0,1-2-1.63,6.68,6.68,0,0,1-4.69,1.65h-.49A8.81,8.81,0,0,1,313,35.36L313,26a8.79,8.79,0,0,1,8.82-8.81h.38A6.25,6.25,0,0,1,327,19l0-11.14a2.08,2.08,0,1,1,4.15,0l.09,34.34A1.94,1.94,0,0,1,329.09,44.11ZM327,25.5a4.39,4.39,0,0,0-4.66-4.2h-.49A4.65,4.65,0,0,0,317.14,26l0,9.39A4.65,4.65,0,0,0,321.82,40h.54A4.36,4.36,0,0,0,327,35.65Z"/><path class="cls-1" d="M354.19,32.47l-11.9,0v2.79A4.62,4.62,0,0,0,347,39.91h.54a4.55,4.55,0,0,0,4.25-2.79,1.93,1.93,0,0,1,1.8-1.32,2.17,2.17,0,0,1,2.14,2.13,2,2,0,0,1-.22.92,8.55,8.55,0,0,1-8,5.21H347a8.77,8.77,0,0,1-8.81-8.76l0-9.4a8.79,8.79,0,0,1,8.77-8.81h.55a8.7,8.7,0,0,1,8.81,8.82v4.48A2.11,2.11,0,0,1,354.19,32.47Zm-2.09-6.55a4.68,4.68,0,0,0-4.6-4.68H347a4.69,4.69,0,0,0-4.69,4.65v2.73l9.83,0Z"/><path class="cls-1" d="M386.39,44.64h-.33c-3.49,0-7.65-2-9.35-5.44a2.43,2.43,0,0,1-.27-1,2.07,2.07,0,0,1,2.12-2,2.17,2.17,0,0,1,1.86.92c1.37,1.8,3.72,3.44,5.74,3.43h.27c3.33,0,5.24-1.87,5.24-3.67.09-7.27-14.2-1.77-14.23-12.14,0-5.24,5.5-7,8.94-7h.21A11.68,11.68,0,0,1,393.75,20a1.91,1.91,0,0,1,.77,1.58,2,2,0,0,1-2,2,2.66,2.66,0,0,1-1.2-.33,9.22,9.22,0,0,0-4.81-1.46h-.22c-3.06,0-4.69,1.38-4.74,3-.09,6,14.2,1.11,14.22,12v.21C395.83,41.94,391,44.63,386.39,44.64Z"/><path class="cls-1" d="M410.78,44.58h-.55a8.79,8.79,0,0,1-8.81-8.77l0-9.39a8.78,8.78,0,0,1,8.77-8.81h.54a8.77,8.77,0,0,1,8.81,8.76l0,9.39A8.8,8.8,0,0,1,410.78,44.58Zm4.59-18.2a4.64,4.64,0,0,0-4.65-4.63h-.54a4.62,4.62,0,0,0-4.63,4.65l0,9.39a4.66,4.66,0,0,0,4.71,4.63h.49a4.65,4.65,0,0,0,4.63-4.66Z"/><path class="cls-1" d="M434.65,10.28a2.88,2.88,0,0,0-2.88,3.07v4.36h2.56a2,2,0,0,1,2.08,2.07,2,2,0,0,1-2.07,2.08h-2.56l0,20.59a2.08,2.08,0,0,1-4.15,0l-.05-20.59h-1.2a2.08,2.08,0,1,1,0-4.15h1.2V13.36a6.93,6.93,0,0,1,7-7.23,2,2,0,0,1,2.08,2.07A2,2,0,0,1,434.65,10.28Z"/><path class="cls-1" d="M452.24,44.47a7.16,7.16,0,0,1-7.17-7.19l0-15.45h-1.92a2.07,2.07,0,1,1,0-4.14H445l0-9.5a2.08,2.08,0,1,1,4.15,0l0,9.5h2.95a2.08,2.08,0,0,1,0,4.15h-2.95l0,15.4a3.13,3.13,0,0,0,3.18,3.1,2.08,2.08,0,0,1-.16,4.15Z"/><path class="cls-1" d="M491.23,20l-6.38,22.84a2.1,2.1,0,0,1-2,1.53h-.44a2.38,2.38,0,0,1-2.07-1.58c-1.33-4.69-4.85-17.78-5.18-18.6-.27.87-3.73,14-5,18.63a2.19,2.19,0,0,1-2,1.59h-.5a2.1,2.1,0,0,1-2-1.52L459.18,20.1a2.53,2.53,0,0,1-.11-.6,2,2,0,0,1,2.13-2,2,2,0,0,1,2,1.53l4.73,16.58,4.88-16.66a2.14,2.14,0,0,1,2.34-1.48h.05c1.64,0,2.14.65,2.36,1.47l5,16.69,4.7-16.66a1.94,1.94,0,0,1,1.91-1.54,2,2,0,0,1,2.14,2A2,2,0,0,1,491.23,20Z"/><path class="cls-1" d="M515.05,44.31a1,1,0,0,1-.38-.05A5.15,5.15,0,0,1,511,42.14a9,9,0,0,1-5.89,2.2h-.49c-4.43,0-8.8-2.77-8.81-7.84v-.66c.36-8.63,12.48-7.13,13.79-9a1.8,1.8,0,0,0,.16-.93c0-3.22-2-4.41-4.44-4.41h-.38a4.57,4.57,0,0,0-4.41,2.74,2.09,2.09,0,0,1-1.86,1.1,2,2,0,0,1-2.08-1.9,2.22,2.22,0,0,1,.22-1,8.48,8.48,0,0,1,8.12-5.1h.38a8.39,8.39,0,0,1,8.6,8.39l0,12.67a1.6,1.6,0,0,0,1.42,1.79,2.06,2.06,0,0,1-.26,4.1Zm-5.33-13.09c-4,1.1-9.66.9-9.82,4.72,0,.33,0,.16,0,.44,0,2.34,1.86,3.81,4.65,3.81h.49a4.67,4.67,0,0,0,4.68-4.65Z"/><path class="cls-1" d="M534.56,23.35a2.42,2.42,0,0,1-1.69-.76,3.26,3.26,0,0,0-2.51-1.14c-3.22,0-3.66,1.86-3.65,3.67l0,17a2.08,2.08,0,1,1-4.15,0l-.06-22.72a2.09,2.09,0,0,1,2.13-2.08,2,2,0,0,1,1.8,1.09s1.09-1.1,3.93-1.1A6.74,6.74,0,0,1,536.08,20a2.29,2.29,0,0,1,.5,1.42A2,2,0,0,1,534.56,23.35Z"/><path class="cls-1" d="M557.29,32.63l-11.9,0v2.78A4.64,4.64,0,0,0,550,40.07h.55a4.58,4.58,0,0,0,4.25-2.8,1.91,1.91,0,0,1,1.8-1.31,2.16,2.16,0,0,1,2.13,2.12,2,2,0,0,1-.21.93,8.56,8.56,0,0,1-8,5.21h-.54a8.79,8.79,0,0,1-8.82-8.77l0-9.39A8.78,8.78,0,0,1,550,17.25h.54a8.68,8.68,0,0,1,8.81,8.82l0,4.47A2.12,2.12,0,0,1,557.29,32.63Zm-2.09-6.55a4.67,4.67,0,0,0-4.6-4.68h-.55a4.67,4.67,0,0,0-4.68,4.65v2.73l9.82,0Z"/><path class="cls-1" d="M64.54,7.39H38.78c-.82-2-1.65-4.11-1.65-4.11A5.23,5.23,0,0,0,32.27,0h-22A5.24,5.24,0,0,0,5.48,3.16L.43,14.91A5.26,5.26,0,0,0,0,17V50.13a5.23,5.23,0,0,0,5.24,5.23h59.3a5.23,5.23,0,0,0,5.24-5.23V12.62A5.23,5.23,0,0,0,64.54,7.39Z"/><path class="cls-2" d="M44.72,33.32H37.59v7.13a2.58,2.58,0,0,1-5.16,0V33.32H25.3a2.58,2.58,0,1,1,0-5.16h7.13V21a2.58,2.58,0,0,1,5.16,0v7.13h7.13a2.58,2.58,0,1,1,0,5.16Z"/></g></g></svg>