<svg width="719" height="423" viewBox="0 0 719 423" fill="none" xmlns="http://www.w3.org/2000/svg">
<path d="M197.939 63.7549H316.135V161.548M316.135 212.555V261.452M316.135 212.555V161.548M316.135 212.555H421.667M197.939 361.356H316.135V261.452M316.135 261.452H197.939M316.135 161.548H197.939" stroke="#DCE9F1" stroke-width="8.44258" stroke-linecap="round" stroke-linejoin="round"/>
<path d="M527.875 276.504H411.962C407.415 276.504 403.727 272.815 403.727 268.268V241.372C403.727 236.825 407.415 233.136 411.962 233.136H527.873C532.422 233.136 536.108 236.825 536.108 241.372V268.266C536.11 272.815 532.422 276.504 527.875 276.504Z" fill="#DCE9F1"/>
<path d="M425.41 262.809C429.822 262.809 433.398 259.232 433.398 254.82C433.398 250.408 429.822 246.831 425.41 246.831C420.998 246.831 417.421 250.408 417.421 254.82C417.421 259.232 420.998 262.809 425.41 262.809Z" fill="#009FE3"/>
<path d="M515.568 253.679C516.828 253.679 517.85 252.657 517.85 251.396C517.85 250.136 516.828 249.114 515.568 249.114C514.307 249.114 513.285 250.136 513.285 251.396C513.285 252.657 514.307 253.679 515.568 253.679Z" fill="#009FE3"/>
<path d="M506.438 253.679C507.698 253.679 508.72 252.657 508.72 251.396C508.72 250.136 507.698 249.114 506.438 249.114C505.177 249.114 504.155 250.136 504.155 251.396C504.155 252.657 505.177 253.679 506.438 253.679Z" fill="#009FE3"/>
<path d="M520.133 260.526C521.394 260.526 522.416 259.504 522.416 258.244C522.416 256.983 521.394 255.961 520.133 255.961C518.872 255.961 517.851 256.983 517.851 258.244C517.851 259.504 518.872 260.526 520.133 260.526Z" fill="#009FE3"/>
<path d="M511.003 260.526C512.264 260.526 513.286 259.504 513.286 258.244C513.286 256.983 512.264 255.961 511.003 255.961C509.743 255.961 508.721 256.983 508.721 258.244C508.721 259.504 509.743 260.526 511.003 260.526Z" fill="#009FE3"/>
<path d="M497.308 253.679C498.568 253.679 499.59 252.657 499.59 251.396C499.59 250.136 498.568 249.114 497.308 249.114C496.047 249.114 495.025 250.136 495.025 251.396C495.025 252.657 496.047 253.679 497.308 253.679Z" fill="#009FE3"/>
<path d="M501.873 260.526C503.134 260.526 504.156 259.504 504.156 258.244C504.156 256.983 503.134 255.961 501.873 255.961C500.613 255.961 499.591 256.983 499.591 258.244C499.591 259.504 500.613 260.526 501.873 260.526Z" fill="#009FE3"/>
<path d="M488.177 253.679C489.438 253.679 490.46 252.657 490.46 251.396C490.46 250.136 489.438 249.114 488.177 249.114C486.917 249.114 485.895 250.136 485.895 251.396C485.895 252.657 486.917 253.679 488.177 253.679Z" fill="#009FE3"/>
<path d="M492.743 260.526C494.004 260.526 495.026 259.504 495.026 258.244C495.026 256.983 494.004 255.961 492.743 255.961C491.483 255.961 490.461 256.983 490.461 258.244C490.461 259.504 491.483 260.526 492.743 260.526Z" fill="#009FE3"/>
<path d="M479.048 253.679C480.308 253.679 481.33 252.657 481.33 251.396C481.33 250.136 480.308 249.114 479.048 249.114C477.787 249.114 476.765 250.136 476.765 251.396C476.765 252.657 477.787 253.679 479.048 253.679Z" fill="#009FE3"/>
<path d="M483.613 260.526C484.874 260.526 485.896 259.504 485.896 258.244C485.896 256.983 484.874 255.961 483.613 255.961C482.352 255.961 481.331 256.983 481.331 258.244C481.331 259.504 482.352 260.526 483.613 260.526Z" fill="#009FE3"/>
<path d="M527.875 232.97H411.962C407.415 232.97 403.727 229.282 403.727 224.735V197.838C403.727 193.292 407.415 189.603 411.962 189.603H527.873C532.422 189.603 536.108 193.292 536.108 197.838V224.733C536.11 229.282 532.422 232.97 527.875 232.97Z" fill="#BFE7F8"/>
<path d="M425.41 219.275C429.822 219.275 433.398 215.699 433.398 211.287C433.398 206.875 429.822 203.298 425.41 203.298C420.998 203.298 417.421 206.875 417.421 211.287C417.421 215.699 420.998 219.275 425.41 219.275Z" fill="#009FE3"/>
<path d="M515.568 210.146C516.828 210.146 517.85 209.124 517.85 207.863C517.85 206.602 516.828 205.581 515.568 205.581C514.307 205.581 513.285 206.602 513.285 207.863C513.285 209.124 514.307 210.146 515.568 210.146Z" fill="#009FE3"/>
<path d="M506.438 210.146C507.698 210.146 508.72 209.124 508.72 207.863C508.72 206.602 507.698 205.581 506.438 205.581C505.177 205.581 504.155 206.602 504.155 207.863C504.155 209.124 505.177 210.146 506.438 210.146Z" fill="#009FE3"/>
<path d="M520.133 216.993C521.394 216.993 522.416 215.971 522.416 214.711C522.416 213.45 521.394 212.428 520.133 212.428C518.872 212.428 517.851 213.45 517.851 214.711C517.851 215.971 518.872 216.993 520.133 216.993Z" fill="#009FE3"/>
<path d="M511.003 216.993C512.264 216.993 513.286 215.971 513.286 214.711C513.286 213.45 512.264 212.428 511.003 212.428C509.743 212.428 508.721 213.45 508.721 214.711C508.721 215.971 509.743 216.993 511.003 216.993Z" fill="#009FE3"/>
<path d="M497.308 210.146C498.568 210.146 499.59 209.124 499.59 207.863C499.59 206.602 498.568 205.581 497.308 205.581C496.047 205.581 495.025 206.602 495.025 207.863C495.025 209.124 496.047 210.146 497.308 210.146Z" fill="#009FE3"/>
<path d="M501.873 216.993C503.134 216.993 504.156 215.971 504.156 214.711C504.156 213.45 503.134 212.428 501.873 212.428C500.613 212.428 499.591 213.45 499.591 214.711C499.591 215.971 500.613 216.993 501.873 216.993Z" fill="#009FE3"/>
<path d="M488.177 210.146C489.438 210.146 490.46 209.124 490.46 207.863C490.46 206.602 489.438 205.581 488.177 205.581C486.917 205.581 485.895 206.602 485.895 207.863C485.895 209.124 486.917 210.146 488.177 210.146Z" fill="#009FE3"/>
<path d="M492.743 216.993C494.004 216.993 495.026 215.971 495.026 214.711C495.026 213.45 494.004 212.428 492.743 212.428C491.483 212.428 490.461 213.45 490.461 214.711C490.461 215.971 491.483 216.993 492.743 216.993Z" fill="#009FE3"/>
<path d="M479.048 210.146C480.308 210.146 481.33 209.124 481.33 207.863C481.33 206.602 480.308 205.581 479.048 205.581C477.787 205.581 476.765 206.602 476.765 207.863C476.765 209.124 477.787 210.146 479.048 210.146Z" fill="#009FE3"/>
<path d="M483.613 216.993C484.874 216.993 485.896 215.971 485.896 214.711C485.896 213.45 484.874 212.428 483.613 212.428C482.352 212.428 481.331 213.45 481.331 214.711C481.331 215.971 482.352 216.993 483.613 216.993Z" fill="#009FE3"/>
<path d="M527.875 189.437H411.962C407.416 189.437 403.727 185.749 403.727 181.202V154.305C403.727 149.759 407.416 146.07 411.962 146.07H527.873C532.422 146.07 536.108 149.759 536.108 154.305V181.2C536.111 185.749 532.422 189.437 527.875 189.437Z" fill="#DCE9F1"/>
<path d="M425.41 175.742C429.822 175.742 433.398 172.166 433.398 167.754C433.398 163.342 429.822 159.765 425.41 159.765C420.998 159.765 417.421 163.342 417.421 167.754C417.421 172.166 420.998 175.742 425.41 175.742Z" fill="#009FE3"/>
<path d="M515.568 166.612C516.828 166.612 517.85 165.591 517.85 164.33C517.85 163.069 516.828 162.047 515.568 162.047C514.307 162.047 513.285 163.069 513.285 164.33C513.285 165.591 514.307 166.612 515.568 166.612Z" fill="#009FE3"/>
<path d="M506.438 166.612C507.698 166.612 508.72 165.591 508.72 164.33C508.72 163.069 507.698 162.047 506.438 162.047C505.177 162.047 504.155 163.069 504.155 164.33C504.155 165.591 505.177 166.612 506.438 166.612Z" fill="#009FE3"/>
<path d="M520.133 173.46C521.394 173.46 522.416 172.438 522.416 171.177C522.416 169.917 521.394 168.895 520.133 168.895C518.872 168.895 517.851 169.917 517.851 171.177C517.851 172.438 518.872 173.46 520.133 173.46Z" fill="#009FE3"/>
<path d="M511.003 173.46C512.264 173.46 513.286 172.438 513.286 171.177C513.286 169.917 512.264 168.895 511.003 168.895C509.743 168.895 508.721 169.917 508.721 171.177C508.721 172.438 509.743 173.46 511.003 173.46Z" fill="#009FE3"/>
<path d="M497.308 166.612C498.568 166.612 499.59 165.591 499.59 164.33C499.59 163.069 498.568 162.047 497.308 162.047C496.047 162.047 495.025 163.069 495.025 164.33C495.025 165.591 496.047 166.612 497.308 166.612Z" fill="#009FE3"/>
<path d="M501.873 173.46C503.134 173.46 504.156 172.438 504.156 171.177C504.156 169.917 503.134 168.895 501.873 168.895C500.613 168.895 499.591 169.917 499.591 171.177C499.591 172.438 500.613 173.46 501.873 173.46Z" fill="#009FE3"/>
<path d="M488.177 166.612C489.438 166.612 490.46 165.591 490.46 164.33C490.46 163.069 489.438 162.047 488.177 162.047C486.917 162.047 485.895 163.069 485.895 164.33C485.895 165.591 486.917 166.612 488.177 166.612Z" fill="#009FE3"/>
<path d="M492.743 173.46C494.004 173.46 495.026 172.438 495.026 171.177C495.026 169.917 494.004 168.895 492.743 168.895C491.483 168.895 490.461 169.917 490.461 171.177C490.461 172.438 491.483 173.46 492.743 173.46Z" fill="#009FE3"/>
<path d="M479.048 166.612C480.308 166.612 481.33 165.591 481.33 164.33C481.33 163.069 480.308 162.047 479.048 162.047C477.787 162.047 476.765 163.069 476.765 164.33C476.765 165.591 477.787 166.612 479.048 166.612Z" fill="#009FE3"/>
<path d="M483.613 173.46C484.874 173.46 485.896 172.438 485.896 171.177C485.896 169.917 484.874 168.895 483.613 168.895C482.352 168.895 481.331 169.917 481.331 171.177C481.331 172.438 482.352 173.46 483.613 173.46Z" fill="#009FE3"/>
<circle cx="197.939" cy="62.6996" r="34.8256" fill="#F2FAFE" stroke="#DCE9F1" stroke-width="4.22129"/>
<path d="M208.328 62.6995C209.085 62.6995 209.836 62.5503 210.536 62.2602C211.236 61.9702 211.873 61.5451 212.408 61.0092C212.944 60.4733 213.369 59.837 213.659 59.1368C213.95 58.4366 214.099 57.6861 214.099 56.9282C214.099 55.3976 213.491 53.9297 212.408 52.8473C211.326 51.765 209.858 51.157 208.328 51.157C206.797 51.157 205.329 51.765 204.247 52.8473C203.164 53.9297 202.556 55.3976 202.556 56.9282C202.556 57.6861 202.705 58.4366 202.996 59.1368C203.286 59.837 203.711 60.4733 204.247 61.0092C205.329 62.0915 206.797 62.6995 208.328 62.6995V62.6995ZM191.014 60.391C192.85 60.391 194.612 59.6614 195.911 58.3626C197.21 57.0638 197.939 55.3022 197.939 53.4655C197.939 51.6287 197.21 49.8672 195.911 48.5684C194.612 47.2696 192.85 46.5399 191.014 46.5399C189.177 46.5399 187.415 47.2696 186.117 48.5684C184.818 49.8672 184.088 51.6287 184.088 53.4655C184.088 55.3022 184.818 57.0638 186.117 58.3626C187.415 59.6614 189.177 60.391 191.014 60.391ZM208.328 67.3166C204.103 67.3166 195.631 69.4404 195.631 73.665V78.8592H221.024V73.665C221.024 69.4404 212.552 67.3166 208.328 67.3166ZM191.014 65.0081C185.635 65.0081 174.854 67.709 174.854 73.0879V78.8592H191.014V73.665C191.014 71.7028 191.775 68.2631 196.485 65.6544C194.476 65.2389 192.537 65.0081 191.014 65.0081Z" fill="#009FE3"/>
<circle cx="197.939" cy="161.9" r="34.8256" fill="#F2FAFE" stroke="#DCE9F1" stroke-width="4.22129"/>
<path d="M197.939 143.432C200.388 143.432 202.737 144.405 204.468 146.136C206.2 147.868 207.173 150.217 207.173 152.666C207.173 155.115 206.2 157.464 204.468 159.195C202.737 160.927 200.388 161.9 197.939 161.9C195.49 161.9 193.141 160.927 191.409 159.195C189.678 157.464 188.705 155.115 188.705 152.666C188.705 150.217 189.678 147.868 191.409 146.136C193.141 144.405 195.49 143.432 197.939 143.432V143.432ZM197.939 166.517C208.142 166.517 216.407 170.649 216.407 175.751V180.368H179.471V175.751C179.471 170.649 187.735 166.517 197.939 166.517Z" fill="#009FE3"/>
<circle cx="197.939" cy="360.3" r="34.8256" fill="#F2FAFE" stroke="#DCE9F1" stroke-width="4.22129"/>
<path d="M197.939 341.832C200.388 341.832 202.737 342.805 204.468 344.537C206.2 346.269 207.173 348.617 207.173 351.066C207.173 353.515 206.2 355.864 204.468 357.596C202.737 359.328 200.388 360.3 197.939 360.3C195.49 360.3 193.141 359.328 191.409 357.596C189.678 355.864 188.705 353.515 188.705 351.066C188.705 348.617 189.678 346.269 191.409 344.537C193.141 342.805 195.49 341.832 197.939 341.832V341.832ZM197.939 364.917C208.142 364.917 216.407 369.05 216.407 374.152V378.769H179.471V374.152C179.471 369.05 187.735 364.917 197.939 364.917Z" fill="#009FE3"/>
<circle cx="197.939" cy="261.1" r="34.8256" fill="#F2FAFE" stroke="#DCE9F1" stroke-width="4.22129"/>
<path d="M197.939 244.941C196.102 244.941 194.341 245.67 193.042 246.969C191.743 248.268 191.014 250.029 191.014 251.866C191.014 253.703 191.743 255.464 193.042 256.763C194.341 258.062 196.102 258.792 197.939 258.792C199.776 258.792 201.537 258.062 202.836 256.763C204.135 255.464 204.865 253.703 204.865 251.866C204.865 250.029 204.135 248.268 202.836 246.969C201.537 245.67 199.776 244.941 197.939 244.941ZM184.088 249.95C182.557 249.95 181.089 250.558 180.007 251.64C178.925 252.723 178.317 254.191 178.317 255.721C178.317 256.479 178.466 257.23 178.756 257.93C179.046 258.63 179.471 259.266 180.007 259.802C180.543 260.338 181.179 260.763 181.879 261.053C182.58 261.343 183.33 261.493 184.088 261.493C186.119 261.493 187.897 260.431 188.913 258.861C187.366 256.899 186.397 254.521 186.397 251.866C186.397 251.404 186.397 250.943 186.489 250.481C185.75 250.135 184.942 249.95 184.088 249.95ZM211.79 249.95C210.936 249.95 210.128 250.135 209.389 250.481C209.482 250.943 209.482 251.404 209.482 251.866C209.482 254.521 208.512 256.899 206.965 258.861C207.981 260.431 209.759 261.493 211.79 261.493C212.548 261.493 213.299 261.343 213.999 261.053C214.699 260.763 215.335 260.338 215.871 259.802C216.407 259.266 216.832 258.63 217.122 257.93C217.412 257.23 217.561 256.479 217.561 255.721C217.561 254.963 217.412 254.213 217.122 253.513C216.832 252.813 216.407 252.176 215.871 251.64C215.335 251.104 214.699 250.679 213.999 250.389C213.299 250.099 212.548 249.95 211.79 249.95ZM197.939 263.409C193.322 263.409 184.088 265.717 184.088 270.334V274.951H211.79V270.334C211.79 265.717 202.556 263.409 197.939 263.409ZM181.018 265.648C177.162 266.317 172.545 268.118 172.545 271.096V274.951H179.471V270.334C179.471 268.534 180.14 266.941 181.018 265.648ZM214.861 265.648C215.738 266.941 216.407 268.534 216.407 270.334V274.951H223.333V271.096C223.333 268.118 218.716 266.317 214.861 265.648Z" fill="#009FE3"/>
</svg>
