<svg width="718" height="423" viewBox="0 0 718 423" fill="none" xmlns="http://www.w3.org/2000/svg">
<path d="M103.421 67.5406C103.421 62.8779 107.201 59.098 111.864 59.098H612.087C616.749 59.098 620.529 62.8779 620.529 67.5406V394.69C620.529 399.353 616.749 403.133 612.087 403.133H111.864C107.201 403.133 103.421 399.353 103.421 394.69V67.5406Z" fill="white"/>
<path fill-rule="evenodd" clip-rule="evenodd" d="M610.186 0.858276H113.104C97.2656 0.858276 84.4258 13.6921 84.4258 29.523V392.606C84.4258 408.437 97.2656 421.27 113.104 421.27H610.186C626.024 421.27 638.864 408.437 638.864 392.606V29.523C638.864 13.6921 626.024 0.858276 610.186 0.858276ZM562.389 19.9677H571.949C577.228 19.9677 581.509 24.2464 581.509 29.523C581.509 34.7996 577.228 39.0783 571.949 39.0783H562.389C557.11 39.0783 552.829 34.7996 552.829 29.523C552.831 24.2464 557.11 19.9677 562.389 19.9677ZM294.73 19.9677H524.152C529.432 19.9677 533.712 24.2464 533.712 29.523C533.712 34.7996 529.432 39.0783 524.152 39.0783H294.73C289.451 39.0783 285.17 34.7996 285.17 29.523C285.17 24.2464 289.451 19.9677 294.73 19.9677ZM246.933 19.9677H256.493C261.772 19.9677 266.053 24.2464 266.053 29.523C266.053 34.7996 261.772 39.0783 256.493 39.0783H246.933C241.654 39.0783 237.374 34.7996 237.374 29.523C237.374 24.2464 241.654 19.9677 246.933 19.9677ZM208.697 19.9677H218.256C223.536 19.9677 227.816 24.2464 227.816 29.523C227.816 34.7996 223.536 39.0783 218.256 39.0783H208.697C203.418 39.0783 199.137 34.7996 199.137 29.523C199.137 24.2464 203.418 19.9677 208.697 19.9677ZM170.459 19.9677C175.738 19.9677 180.019 24.2464 180.019 29.523C180.019 34.7996 175.738 39.0783 170.459 39.0783C165.18 39.0783 160.899 34.7996 160.899 29.523C160.9 24.2464 165.18 19.9677 170.459 19.9677ZM141.782 19.9677C147.061 19.9677 151.342 24.2464 151.342 29.523C151.342 34.7996 147.061 39.0783 141.782 39.0783C136.503 39.0783 132.222 34.7996 132.222 29.523C132.222 24.2464 136.502 19.9677 141.782 19.9677ZM113.104 19.9677C118.383 19.9677 122.664 24.2464 122.664 29.523C122.664 34.7996 118.383 39.0783 113.104 39.0783C107.825 39.0783 103.544 34.7996 103.544 29.523C103.544 24.2464 107.825 19.9677 113.104 19.9677ZM619.745 115.516V392.606C619.745 397.882 615.465 402.161 610.186 402.161H113.104C107.825 402.161 103.544 397.882 103.544 392.606V115.516V67.7419C103.544 62.4653 107.825 58.1866 113.104 58.1866H610.186C615.465 58.1866 619.745 62.4653 619.745 67.7419V115.516ZM610.186 39.0772H600.626C595.347 39.0772 591.066 34.7985 591.066 29.5219C591.066 24.2453 595.347 19.9666 600.626 19.9666H610.186C615.465 19.9666 619.745 24.2453 619.745 29.5219C619.745 34.7996 615.465 39.0772 610.186 39.0772Z" fill="#DCE9F1"/>
<path d="M113.104 39.0782C118.384 39.0782 122.664 34.8001 122.664 29.5229C122.664 24.2457 118.384 19.9677 113.104 19.9677C107.824 19.9677 103.544 24.2457 103.544 29.5229C103.544 34.8001 107.824 39.0782 113.104 39.0782Z" fill="#FF6469"/>
<path d="M141.782 39.0782C147.062 39.0782 151.342 34.8001 151.342 29.5229C151.342 24.2457 147.062 19.9677 141.782 19.9677C136.502 19.9677 132.222 24.2457 132.222 29.5229C132.222 34.8001 136.502 39.0782 141.782 39.0782Z" fill="#FFE169"/>
<path d="M170.459 39.0782C175.739 39.0782 180.019 34.8001 180.019 29.5229C180.019 24.2457 175.739 19.9677 170.459 19.9677C165.179 19.9677 160.899 24.2457 160.899 29.5229C160.899 34.8001 165.179 39.0782 170.459 39.0782Z" fill="#87E1AA"/>
<path fill-rule="evenodd" clip-rule="evenodd" d="M208.954 78.0939H141.414C136.751 78.0939 132.971 82.3468 132.971 87.5918C132.971 92.8367 136.751 97.0897 141.414 97.0897H208.954C213.616 97.0897 217.396 92.8367 217.396 87.5918C217.396 82.3468 213.616 78.0939 208.954 78.0939Z" fill="#009FE3"/>
<path fill-rule="evenodd" clip-rule="evenodd" d="M285.169 77.2972H246.933C241.654 77.2972 237.373 81.5759 237.373 86.8525C237.373 92.1291 241.654 96.4078 246.933 96.4078H285.169C290.449 96.4078 294.729 92.1291 294.729 86.8525C294.729 81.5759 290.449 77.2972 285.169 77.2972Z" fill="#DCE9F1"/>
<path fill-rule="evenodd" clip-rule="evenodd" d="M361.645 77.2972H323.408C318.129 77.2972 313.848 81.5759 313.848 86.8525C313.848 92.1291 318.129 96.4078 323.408 96.4078H361.645C366.924 96.4078 371.204 92.1291 371.204 86.8525C371.204 81.5759 366.924 77.2972 361.645 77.2972Z" fill="#DCE9F1"/>
<path fill-rule="evenodd" clip-rule="evenodd" d="M438.119 77.2972H399.882C394.603 77.2972 390.323 81.5759 390.323 86.8525C390.323 92.1291 394.603 96.4078 399.882 96.4078H438.119C443.398 96.4078 447.679 92.1291 447.679 86.8525C447.679 81.5759 443.398 77.2972 438.119 77.2972Z" fill="#DCE9F1"/>
<path fill-rule="evenodd" clip-rule="evenodd" d="M514.592 77.2972H476.355C471.076 77.2972 466.795 81.5759 466.795 86.8525C466.795 92.1291 471.076 96.4078 476.355 96.4078H514.592C519.871 96.4078 524.152 92.1291 524.152 86.8525C524.152 81.5759 519.871 77.2972 514.592 77.2972Z" fill="#DCE9F1"/>
<path fill-rule="evenodd" clip-rule="evenodd" d="M591.067 77.2972H552.83C547.551 77.2972 543.271 81.5759 543.271 86.8525C543.271 92.1291 547.551 96.4078 552.83 96.4078H591.067C596.346 96.4078 600.627 92.1291 600.627 86.8525C600.627 81.5759 596.346 77.2972 591.067 77.2972Z" fill="#DCE9F1"/>
<rect opacity="0.5" x="132.971" y="278.605" width="109.754" height="94.979" rx="8.44258" fill="#DCE9F1"/>
<rect x="132.971" y="278.605" width="25.3277" height="94.979" rx="8.44258" fill="#DCE9F1"/>
<rect opacity="0.5" x="132.971" y="126.639" width="109.754" height="130.86" rx="8.44258" fill="#DCE9F1"/>
<rect x="132.971" y="126.639" width="109.754" height="25.3277" rx="8.44258" fill="#DCE9F1"/>
<rect opacity="0.5" x="487.559" y="299.711" width="109.754" height="73.8726" rx="8.44258" fill="#DCE9F1"/>
<rect x="487.559" y="299.711" width="25.3277" height="73.8726" rx="8.44258" fill="#DCE9F1"/>
<rect opacity="0.5" x="487.559" y="213.175" width="109.754" height="73.8726" rx="8.44258" fill="#DCE9F1"/>
<rect x="487.559" y="213.175" width="25.3277" height="73.8726" rx="8.44258" fill="#DCE9F1"/>
<rect opacity="0.5" x="487.559" y="126.639" width="109.754" height="73.8726" rx="8.44258" fill="#DCE9F1"/>
<rect x="487.559" y="126.639" width="25.3277" height="73.8726" rx="8.44258" fill="#DCE9F1"/>
<rect x="269.107" y="129.805" width="189.958" height="240.613" rx="5.27661" fill="#F2FAFE" stroke="#009FE3" stroke-width="6.33193"/>
<rect x="265.941" y="126.639" width="196.29" height="27.4384" rx="8.44258" fill="#009FE3"/>
</svg>
