<svg width="718" height="423" viewBox="0 0 718 423" fill="none" xmlns="http://www.w3.org/2000/svg">
<circle opacity="0.3" cx="358.809" cy="211.5" r="163.575" stroke="#80CFF1" stroke-width="2.11064"/>
<circle opacity="0.4" cx="358.809" cy="211.5" r="113.975" stroke="#80CFF1" stroke-width="8.44258"/>
<circle cx="358.81" cy="211.5" r="59.098" stroke="#BFE7F8" stroke-width="16.8852"/>
<ellipse cx="232.171" cy="139.738" rx="14.7745" ry="4.22129" fill="#DCE9F1"/>
<path d="M232.171 117.576C230.772 117.576 229.429 117.02 228.44 116.031C227.45 115.041 226.894 113.699 226.894 112.3C226.894 110.9 227.45 109.558 228.44 108.569C229.429 107.579 230.772 107.023 232.171 107.023C233.57 107.023 234.913 107.579 235.902 108.569C236.892 109.558 237.448 110.9 237.448 112.3C237.448 112.993 237.311 113.679 237.046 114.319C236.781 114.959 236.392 115.541 235.902 116.031C235.412 116.521 234.83 116.91 234.19 117.175C233.55 117.44 232.864 117.576 232.171 117.576V117.576ZM232.171 97.5253C228.253 97.5253 224.495 99.0819 221.724 101.853C218.953 104.623 217.396 108.381 217.396 112.3C217.396 123.381 232.171 139.738 232.171 139.738C232.171 139.738 246.946 123.381 246.946 112.3C246.946 108.381 245.389 104.623 242.618 101.853C239.847 99.0819 236.089 97.5253 232.171 97.5253V97.5253Z" fill="#8095A2"/>
<ellipse cx="443.235" cy="205.168" rx="14.7745" ry="4.22129" fill="#BFE7F8"/>
<path d="M443.235 183.006C441.836 183.006 440.494 182.451 439.504 181.461C438.515 180.471 437.959 179.129 437.959 177.73C437.959 176.33 438.515 174.988 439.504 173.999C440.494 173.009 441.836 172.453 443.235 172.453C444.635 172.453 445.977 173.009 446.967 173.999C447.956 174.988 448.512 176.33 448.512 177.73C448.512 178.423 448.376 179.109 448.11 179.749C447.845 180.389 447.457 180.971 446.967 181.461C446.477 181.951 445.895 182.34 445.255 182.605C444.615 182.87 443.928 183.006 443.235 183.006V183.006ZM443.235 162.955C439.317 162.955 435.559 164.512 432.788 167.283C430.018 170.053 428.461 173.811 428.461 177.73C428.461 188.811 443.235 205.168 443.235 205.168C443.235 205.168 458.01 188.811 458.01 177.73C458.01 173.811 456.453 170.053 453.683 167.283C450.912 164.512 447.154 162.955 443.235 162.955V162.955Z" fill="#009FE3"/>
<ellipse cx="470.673" cy="371.909" rx="14.7745" ry="4.22129" fill="#DCE9F1"/>
<path d="M470.673 349.747C469.274 349.747 467.932 349.191 466.942 348.202C465.953 347.212 465.397 345.87 465.397 344.471C465.397 343.071 465.953 341.729 466.942 340.74C467.932 339.75 469.274 339.194 470.673 339.194C472.073 339.194 473.415 339.75 474.405 340.74C475.394 341.729 475.95 343.071 475.95 344.471C475.95 345.164 475.814 345.85 475.548 346.49C475.283 347.13 474.895 347.712 474.405 348.202C473.915 348.692 473.333 349.08 472.693 349.346C472.053 349.611 471.366 349.747 470.673 349.747V349.747ZM470.673 329.696C466.755 329.696 462.997 331.253 460.226 334.024C457.456 336.794 455.899 340.552 455.899 344.471C455.899 355.552 470.673 371.909 470.673 371.909C470.673 371.909 485.448 355.552 485.448 344.471C485.448 340.552 483.891 336.794 481.121 334.024C478.35 331.253 474.592 329.696 470.673 329.696V329.696Z" fill="#8095A2"/>
<ellipse cx="143.524" cy="355.024" rx="14.7745" ry="4.22129" fill="#DCE9F1"/>
<path d="M143.524 332.862C142.125 332.862 140.782 332.306 139.793 331.317C138.803 330.327 138.247 328.985 138.247 327.586C138.247 326.186 138.803 324.844 139.793 323.854C140.782 322.865 142.125 322.309 143.524 322.309C144.923 322.309 146.266 322.865 147.255 323.854C148.245 324.844 148.801 326.186 148.801 327.586C148.801 328.278 148.664 328.965 148.399 329.605C148.134 330.245 147.745 330.827 147.255 331.317C146.765 331.807 146.183 332.195 145.543 332.46C144.903 332.726 144.217 332.862 143.524 332.862V332.862ZM143.524 312.811C139.606 312.811 135.848 314.368 133.077 317.138C130.306 319.909 128.75 323.667 128.75 327.586C128.75 338.666 143.524 355.024 143.524 355.024C143.524 355.024 158.299 338.666 158.299 327.586C158.299 323.667 156.742 319.909 153.971 317.138C151.2 314.368 147.442 312.811 143.524 312.811V312.811Z" fill="#8095A2"/>
<ellipse cx="544.547" cy="99.636" rx="14.7745" ry="4.22129" fill="#DCE9F1"/>
<path d="M544.546 77.4742C543.147 77.4742 541.805 76.9183 540.815 75.9287C539.826 74.9392 539.27 73.5971 539.27 72.1976C539.27 70.7982 539.826 69.456 540.815 68.4665C541.805 67.4769 543.147 66.921 544.546 66.921C545.946 66.921 547.288 67.4769 548.278 68.4665C549.267 69.456 549.823 70.7982 549.823 72.1976C549.823 72.8905 549.687 73.5767 549.421 74.2169C549.156 74.8571 548.768 75.4388 548.278 75.9287C547.788 76.4187 547.206 76.8074 546.566 77.0726C545.926 77.3377 545.239 77.4742 544.546 77.4742V77.4742ZM544.546 57.4231C540.628 57.4231 536.87 58.9797 534.099 61.7504C531.329 64.5212 529.772 68.2792 529.772 72.1976C529.772 83.2785 544.546 99.636 544.546 99.636C544.546 99.636 559.321 83.2785 559.321 72.1976C559.321 68.2792 557.764 64.5212 554.994 61.7504C552.223 58.9797 548.465 57.4231 544.546 57.4231V57.4231Z" fill="#8095A2"/>
<path d="M358.809 203.057C361.048 203.057 363.196 203.947 364.779 205.53C366.362 207.114 367.252 209.261 367.252 211.5C367.252 213.739 366.362 215.887 364.779 217.47C363.196 219.053 361.048 219.943 358.809 219.943C356.57 219.943 354.423 219.053 352.84 217.47C351.256 215.887 350.367 213.739 350.367 211.5C350.367 209.261 351.256 207.114 352.84 205.53C354.423 203.947 356.57 203.057 358.809 203.057V203.057ZM339.919 213.611H335.592V209.389H339.919C340.869 200.588 347.897 193.56 356.699 192.61V188.283H360.92V192.61C369.721 193.56 376.75 200.588 377.7 209.389H382.026V213.611H377.7C376.75 222.412 369.721 229.441 360.92 230.39V234.717H356.699V230.39C347.897 229.441 340.869 222.412 339.919 213.611ZM358.809 196.726C354.891 196.726 351.133 198.282 348.362 201.053C345.591 203.824 344.035 207.582 344.035 211.5C344.035 215.418 345.591 219.176 348.362 221.947C351.133 224.718 354.891 226.275 358.809 226.275C362.728 226.275 366.486 224.718 369.257 221.947C372.027 219.176 373.584 215.418 373.584 211.5C373.584 207.582 372.027 203.824 369.257 201.053C366.486 198.282 362.728 196.726 358.809 196.726V196.726Z" fill="#009FE3"/>
</svg>
